<?xml version="1.0" encoding="utf-8"?>
<!-- Generator: Adobe Illustrator 19.1.0, SVG Export Plug-In . SVG Version: 6.00 Build 0)  -->
<svg version="1.1" id="Layer_1" xmlns="http://www.w3.org/2000/svg" xmlns:xlink="http://www.w3.org/1999/xlink" x="0px" y="0px"
	 viewBox="-130 -35 520 140" enable-background="new -130 -35 520 140" xml:space="preserve">
<g>
	<g>
		<path fill="#147DAF" d="M-67-27.9h36.6v17.4h-7.8v78.8h-21l-40-62.2V51h8v17.4h-36.6V51h8v-61.4h-7.8v-17.4h29l39.8,63v-45.6H-67
			V-27.9z"/>
		<path fill="#147DAF" d="M-25.8,35.1c0-4.8,0.8-9.2,2.6-13.4c1.8-4.2,4.2-7.8,7.2-11s6.8-5.6,11-7.4c4.2-1.8,9-2.8,14-2.8
			c5.2,0,9.8,1,14.2,2.8c4.2,1.8,8,4.2,11,7.4s5.4,6.8,7.2,11S44,30.3,44,35.1s-0.8,9.2-2.6,13.4c-1.6,4.2-4,7.8-7.2,11
			c-3,3.2-6.8,5.6-11,7.4s-9,2.8-14.4,2.8c-5.2,0-10-1-14.4-2.8c-4.2-1.8-8-4.2-11-7.4s-5.4-6.8-7-11C-25,44.5-25.8,40.1-25.8,35.1z
			 M-6.8,35.1c0,2.4,0.4,4.8,1.2,6.8c0.8,2,2,4,3.4,5.4c1.4,1.6,3.2,2.8,5,3.6c2,0.8,4,1.2,6.2,1.2s4.4-0.4,6.2-1.2
			c2-0.8,3.6-2,5-3.6s2.6-3.4,3.4-5.4c0.8-2,1.2-4.4,1.2-7s-0.4-5-1.2-7.2s-2-4-3.4-5.4s-3-2.6-5-3.4c-2-0.8-4-1.2-6.2-1.2
			s-4.2,0.4-6.2,1.2s-3.6,2-5,3.4c-1.4,1.4-2.6,3.2-3.4,5.4C-6.4,30.3-6.8,32.5-6.8,35.1z"/>
		<path fill="#147DAF" d="M110.2,26.5H92.4v-6.8c-1.8,0-3.4,0.2-4.8,0.4c-1.4,0.2-2.6,0.6-3.8,1.2c-1,0.6-2,1.4-2.8,2.2
			c-0.8,1-1.2,2.2-1.6,3.6v23.8h13.4v17.4H50V50.9h9.8v-31H50V2.5h29.2v4.6c1.8-1.4,4-2.6,6.2-3.4c2.4-0.8,4.8-1.2,7.6-1.2
			s5.6,0,8.6,0s5.8,0,8.2,0v24H110.2z"/>
		<path fill="#147DAF" d="M114.4-30.5H143V3.9c2.2-1,4.6-2,7-2.6s4.8-0.8,7.4-0.8c4.8,0,9.4,1,13.6,2.8s7.8,4.2,10.8,7.4
			s5.4,6.8,7,11c1.8,4.2,2.6,8.6,2.6,13.4c0,4.8-0.8,9.2-2.6,13.4c-1.6,4.2-4,7.8-7,11s-6.6,5.6-10.8,7.4c-4.2,1.8-8.6,2.6-13.6,2.6
			c-2.6,0-5.2-0.2-7.6-0.8s-4.6-1.2-6.8-2.2v1.8h-19.4v-81.4h-9.2C114.4-13.1,114.4-30.5,114.4-30.5z M156.2,18.1
			c-2.8,0-5.4,0.6-7.6,2c-2.2,1.2-4,3-5.6,5.4v19.6c1.4,2,3.2,3.6,5.4,5c2.2,1.2,4.8,1.8,7.6,1.8c2.2,0,4.2-0.4,6.2-1.2
			c2-0.8,3.6-2,5.2-3.4c1.4-1.4,2.6-3.2,3.4-5.2s1.2-4.4,1.2-7s-0.4-5-1.2-7.2c-0.8-2.2-2-4-3.4-5.4s-3.2-2.6-5-3.4
			S158.4,18.1,156.2,18.1z"/>
		<path fill="#147DAF" d="M214.4,39.5l0.2,2c0.4,2,1.2,3.6,2.4,5c1.2,1.4,2.4,2.6,4,3.6s3.2,1.8,5,2.2c1.8,0.4,3.8,0.8,5.6,0.8
			c2,0,3.8-0.2,5.4-0.4c1.8-0.2,3.4-0.6,5-1s3.2-0.8,4.6-1.4s3-1,4.6-1.6l7,13c-2.4,1.4-4.6,2.8-6.6,3.8s-4,1.8-6,2.6
			c-2,0.6-4.2,1.2-6.4,1.4c-2.2,0.4-5,0.4-8,0.4c-5.8,0-10.8-1-15.2-2.8c-4.4-1.8-8.2-4.4-11.2-7.6s-5.4-7-7-11.2
			c-1.6-4.4-2.4-8.8-2.4-13.8s0.8-9.4,2.6-13.6c1.6-4.2,4-8,7-11s6.6-5.6,11-7.4c4.2-1.8,9-2.8,14-2.8c5.2,0,9.8,0.8,13.8,2.6
			s7.4,4,10.2,7.2c2.8,3,4.8,6.6,6.4,10.6c1.4,4,2.2,8.4,2.4,13.2c0.2,1,0.2,2.2,0.2,3.2s0,2.2,0,3.2h-48.6V39.5z M229.6,15.5
			c-2.4,0-4.4,0.2-6,0.8c-1.6,0.6-3,1.4-4.2,2.4s-2,2.2-2.8,3.4c-0.6,1.2-1.2,2.6-1.6,4h27.4c-0.2-1.4-0.8-2.8-1.2-4
			c-0.6-1.2-1.4-2.4-2.2-3.4c-1-1-2.2-1.8-3.8-2.4C233.6,15.9,231.8,15.5,229.6,15.5z"/>
		<path fill="#147DAF" d="M329,26.5h-17.8v-6.8c-1.8,0-3.4,0.2-4.8,0.4s-2.6,0.6-3.8,1.2c-1,0.6-2,1.4-2.8,2.2
			c-0.8,1-1.2,2.2-1.6,3.6v23.8h13.4v17.4h-43V50.9h9.8v-31h-9.8V2.5h29.2v4.6c1.8-1.4,4-2.6,6.2-3.4c2.4-0.8,4.8-1.2,7.6-1.2
			c2.8,0,5.6,0,8.6,0s5.8,0,8.2,0v24H329z"/>
		<path fill="#147DAF" d="M361.4,2.5h13.2v16.6h-13.2l-0.2,27.8c0,1.6,0.2,3,0.4,4s0.6,1.8,1.2,2.4s1,1,1.8,1.2
			c0.6,0.2,1.4,0.4,2.4,0.4c1.6,0,3-0.2,4.2-0.4c1.2-0.4,2.4-0.6,3.6-1.2l2.8,12.2c-2.2,1.4-4.6,2.4-7.2,3.2
			c-2.6,0.8-5.8,1.2-9.4,1.2c-2.6,0-5-0.4-7.4-1.4c-2.4-0.8-4.4-2.2-6.2-4c-1.8-1.8-3.2-4-4.2-6.8s-1.6-5.8-1.6-9.4l0.2-29.2h-9.4
			V2.5h9.6l0.2-15.8l19.8-9.4L361.4,2.5z"/>
	</g>
	<ellipse fill="#147DAF" cx="10" cy="35.3" rx="31.2" ry="27.4"/>
	<polygon fill="#FFFFFF" points="9.6,11.9 16.4,25.7 31.6,27.9 20.6,38.7 23.2,53.9 9.6,46.7 -4,53.9 -1.4,38.7 -12.6,27.9 
		2.8,25.7 	"/>
	<path fill="#147DAF" d="M-104.6,77.2c0,0,7.4,1,20.6,1.8c3.2,0.2,6.8,0.4,10.8,0.6s8.2,0.4,12.8,0.6c4.6,0.2,9.4,0.2,14.6,0.4
		c5.2,0.2,10.4,0.2,16.2,0.2c5.6,0,11.4,0,17.6,0c6,0,12.2-0.2,18.8-0.4c3.2,0,6.4-0.2,9.8-0.2c3.2-0.2,6.6-0.4,10-0.4
		c3.4-0.2,6.8-0.2,10.2-0.4c3.4-0.2,7-0.4,10.4-0.6c14-0.6,28.4-2,43-3.2c7.4-0.6,14.8-1.4,22.2-2.2c7.4-0.8,14.8-1.6,22.2-2.6
		c7.4-0.8,15-1.6,22.4-2.4c3.8-0.4,7.4-0.8,11.2-1.2c3.8-0.4,7.4-0.6,11.2-1c7.4-0.6,14.8-1.2,22-1.6s14.4-0.8,21.6-1
		c7-0.2,14-0.6,20.8-0.4c6.8,0,13.4,0,20,0.2c6.4,0.2,12.8,0.2,19,0.6c6.2,0.4,12,0.6,17.6,1s11,0.8,16.2,1.2c5.2,0.6,10,1,14.6,1.6
		c9.2,1,17,2.4,23.6,3.4s11.6,2.2,15,3s5.2,1.2,5.2,1.2s-1.8-0.2-5.4-0.6s-8.6-0.8-15.2-1.2c-6.6-0.4-14.6-0.8-23.6-1.2
		c-9.2-0.2-19.4-0.4-30.6-0.4s-23.4,0.2-36.2,0.6c-12.8,0.4-26.4,1.2-40.4,2c-7,0.4-14,1-21.2,1.6s-14.4,1.2-21.8,2
		c-3.6,0.4-7.4,0.8-11,1c-3.6,0.4-7.4,0.8-11.2,1.2c-7.4,0.8-14.8,1.6-22.4,2.6c-7.6,0.8-15,1.6-22.4,2.4c-7.4,0.6-15,1.2-22.4,1.8
		c-3.8,0.4-7.4,0.6-11,0.8c-3.6,0.2-7.4,0.4-11,0.6C62,89,54.8,89.2,47.6,89.4c-3.6,0-7,0.2-10.6,0.2c-3.4,0-7,0-10.4,0
		s-6.8,0-10.2,0s-6.6-0.2-9.8-0.2c-6.4-0.2-12.8-0.2-18.8-0.6s-12-0.6-17.6-1s-11-0.8-16.2-1.4c-5.2-0.6-10-1-14.6-1.6
		s-8.8-1-12.8-1.8c-4-0.6-7.6-1.2-10.8-1.8c-6.6-1-11.6-2.2-15-3C-102.8,77.6-104.6,77.2-104.6,77.2z"/>
	<path fill="#7EA5C9" d="M-50.6,89.3c0,0,6.8,0.8,18.8,1.6c3,0.2,6.4,0.4,10,0.6s7.6,0.4,11.6,0.6C-6,92.3-1.6,92.3,3,92.5
		c4.6,0.2,9.6,0.2,14.8,0.2s10.4,0,16,0S45,92.5,51,92.3c3,0,6-0.2,9-0.2c3-0.2,6-0.2,9.2-0.4c3-0.2,6.2-0.2,9.4-0.4
		c3.2-0.2,6.4-0.4,9.6-0.6c6.4-0.4,12.8-0.6,19.4-1.2c6.6-0.6,13.2-1,20-1.6c6.6-0.6,13.4-1.2,20.2-2c6.8-0.8,13.6-1.6,20.4-2.4
		s13.6-1.6,20.4-2.2c3.4-0.4,6.8-0.8,10.2-1c3.4-0.2,6.8-0.6,10.2-0.8c6.8-0.6,13.6-1.2,20.2-1.4c6.6-0.2,13.2-0.8,19.8-0.8
		c6.4-0.2,12.8-0.4,19-0.4s12.4,0,18.2,0c6,0.2,11.8,0.2,17.4,0.4c5.6,0.4,11,0.6,16.2,1s10.2,0.8,14.8,1.2c4.6,0.6,9.2,1,13.4,1.4
		c8.4,1,15.6,2.2,21.6,3.2s10.6,2,13.8,2.8s4.8,1.2,4.8,1.2s-1.8-0.2-5-0.6s-8-0.8-14-1.2c-6-0.4-13.2-0.8-21.6-1s-17.8-0.4-28-0.4
		s-21.4,0.2-33.2,0.6c-11.8,0.4-24.2,1-36.8,1.8c-6.4,0.4-12.8,1-19.4,1.4s-13.2,1.2-19.8,1.8c-3.4,0.4-6.6,0.6-10,1
		s-6.8,0.8-10.2,1.2c-6.8,0.8-13.6,1.6-20.4,2.2c-6.8,0.8-13.8,1.4-20.6,2.2c-6.8,0.6-13.6,1.2-20.4,1.6c-3.4,0.4-6.8,0.6-10.2,0.6
		c-3.4,0.2-6.8,0.4-10,0.6c-6.6,0.4-13.2,0.6-19.8,0.8c-3.2,0-6.4,0.2-9.6,0.2c-3.2,0-6.4,0-9.4,0c-3.2,0-6.2,0-9.2,0s-6-0.2-9-0.2
		c-6-0.2-11.8-0.2-17.4-0.6c-5.6-0.2-11-0.6-16.2-1S7.8,98.6,3.2,98c-4.6-0.4-9.2-1-13.4-1.4c-4.2-0.4-8-1-11.6-1.6s-6.8-1-9.8-1.6
		c-6-1-10.6-2-13.8-2.6C-49,89.8-50.6,89.3-50.6,89.3z"/>
</g>
</svg>
